<?xml version="1.0" encoding="UTF-8" standalone="no"?>
<svg
   xmlns:dc="http://purl.org/dc/elements/1.1/"
   xmlns:cc="http://creativecommons.org/ns#"
   xmlns:rdf="http://www.w3.org/1999/02/22-rdf-syntax-ns#"
   xmlns:svg="http://www.w3.org/2000/svg"
   xmlns="http://www.w3.org/2000/svg"
   version="1.1"
   id="svg2"
   viewBox="0 0 1000 500.00001"
   height="500"
   width="1000">
  <defs
     id="defs4" />
  <metadata
     id="metadata7">
    <rdf:RDF>
      <cc:Work
         rdf:about="">
        <dc:format>image/svg+xml</dc:format>
        <dc:type
           rdf:resource="http://purl.org/dc/dcmitype/StillImage" />
        <dc:title></dc:title>
      </cc:Work>
    </rdf:RDF>
  </metadata>
  <g
     transform="translate(0,-552.36216)"
     id="layer1">
    <g
       id="text4136"
       style="font-style:normal;font-weight:normal;font-size:40px;line-height:125%;font-family:Sans;letter-spacing:0px;word-spacing:0px;fill:#000000;fill-opacity:1;stroke:none;stroke-width:1px;stroke-linecap:butt;stroke-linejoin:miter;stroke-opacity:1">
      <path
         id="path4149"
         style="font-style:normal;font-variant:normal;font-weight:normal;font-stretch:normal;font-size:250px;font-family:Lora;-inkscape-font-specification:Lora"
         d="m 208.09668,832.33042 q -0.97656,2.92969 -1.70898,5.24903 -0.73243,2.31933 -1.46485,4.27246 -0.73242,1.95312 -1.46484,3.78418 -0.73242,1.83105 -1.58692,3.90625 l 19.53125,-0.97656 0,10.98632 -46.75293,0 0,-8.30078 q 5.61524,0 9.15528,-2.19726 3.54004,-2.31934 5.98144,-6.46973 2.44141,-4.15039 4.39453,-9.88769 2.0752,-5.73731 4.63868,-12.69533 l 51.51367,-140.25879 5.98144,0 55.78614,142.33399 q 1.09863,2.56348 2.19726,6.22558 1.2207,3.54004 2.19727,7.32422 1.09863,3.78418 1.58691,7.44629 0.61035,3.66211 0.48828,6.46973 l 17.08985,-0.97655 0,10.98631 -57.25098,0 0,-8.30078 q 6.95801,-0.12207 10.25391,-2.56347 3.29589,-2.44141 4.15039,-5.98145 0.85449,-3.54004 0,-7.56836 -0.8545,-4.02832 -2.19727,-7.56836 l -8.78906,-23.4375 -65.06348,1.46485 q -2.68555,7.69043 -4.76074,14.16015 -2.0752,6.34766 -3.90625,12.57325 z m 30.27344,-87.76855 q -5.73731,16.11328 -10.13184,28.44238 -4.27246,12.20703 -7.69043,21.85059 l 57.86133,0 -17.82227,-47.85156 -11.23046,-30.76172 -0.48829,0 -10.49804,28.32031 z" />
      <path
         id="path4151"
         d="m 388.73633,720.0223 0,10.72461 c -5.85289,0.45989 -10.88692,1.64272 -15.09375,3.56054 -5.45248,2.44141 -9.80729,5.49414 -13.0625,9.15625 -3.25521,3.66211 -5.53191,7.60807 -6.83399,11.83985 -1.30208,4.15038 -1.95507,7.97525 -1.95507,11.47461 0,5.61523 1.01822,10.45833 3.05273,14.52734 2.11589,4.06901 4.84115,7.56836 8.17773,10.49805 3.41797,2.92968 7.28451,5.49218 11.59766,7.68945 4.31315,2.11589 8.70769,4.06901 13.18359,5.85937 0.31984,0.12565 0.61497,0.2439 0.9336,0.36915 l 0,47.27929 c -2.02601,-0.421 -4.00779,-0.99879 -5.93945,-1.75 -4.31316,-1.79036 -8.17774,-4.23176 -11.59571,-7.32422 -3.33658,-3.17382 -6.0638,-6.91732 -8.17969,-11.23047 -2.0345,-4.39453 -3.21354,-9.19596 -3.53906,-14.40429 l -7.6914,0 1.46679,42.96875 10.4961,0 -0.85352,-8.66602 c 4.15039,2.84831 9.44011,5.37109 15.86914,7.56836 3.08586,1.09372 6.41221,1.91758 9.9668,2.48633 l 0,9.90625 11.67773,0 0,-8.98633 c 0.23367,0.002 0.46007,0.0117 0.69532,0.0117 5.28971,0 10.49804,-0.73243 15.625,-2.19727 5.20833,-1.46484 9.84505,-3.70377 13.91406,-6.71484 4.15039,-3.01107 7.48893,-6.83594 10.01172,-11.47461 2.52278,-4.63867 3.7832,-10.09115 3.7832,-16.35742 0,-5.37109 -1.05794,-10.00976 -3.17383,-13.91602 -2.03451,-3.90624 -4.76172,-7.32422 -8.17969,-10.2539 -3.41796,-2.92969 -7.32421,-5.45248 -11.71875,-7.56836 -4.39453,-2.19727 -8.86849,-4.23177 -13.42578,-6.10352 -2.53752,-1.0875 -5.04419,-2.14264 -7.53125,-3.17969 l 0,-45.58789 c 3.4326,0.4471 6.51674,1.39497 9.23828,2.86915 3.90626,2.11588 7.12175,4.8828 9.64454,8.30078 2.60416,3.33658 4.55728,7.12174 5.85937,11.35351 1.38347,4.23177 2.23893,8.50325 2.56445,12.81641 l 7.8125,0 0,-43.82227 -10.49804,0 0.60937,9.52149 c -2.60417,-2.03451 -5.25,-3.7435 -7.93555,-5.12696 -2.68554,-1.38346 -5.37109,-2.48307 -8.05664,-3.29687 -2.68554,-0.89518 -5.32942,-1.50455 -7.93359,-1.83008 -0.44025,-0.0568 -0.87187,-0.1035 -1.30469,-0.15039 l 0,-10.83984 -11.67773,0 z m 0,20.5664 0,40.05664 c -2.11651,-1.10607 -4.10443,-2.26688 -5.93945,-3.49023 -3.41797,-2.27865 -6.1849,-4.88281 -8.30079,-7.8125 -2.0345,-2.92969 -3.05078,-6.42904 -3.05078,-10.49805 0,-2.52278 0.52995,-4.92448 1.58789,-7.20312 1.05794,-2.27865 2.60417,-4.27149 4.63868,-5.98047 2.11588,-1.79036 4.67838,-3.17383 7.68945,-4.15039 1.06776,-0.37516 2.19466,-0.67975 3.375,-0.92188 z m 11.67773,69.74024 c 0.22595,0.0895 0.47004,0.18417 0.69532,0.27343 4.39453,1.70899 8.25911,3.66212 11.5957,5.85938 3.41796,2.11589 6.14518,4.59701 8.17969,7.44531 2.11588,2.76693 3.17382,6.14518 3.17382,10.13281 0,3.41797 -0.85546,6.38737 -2.56445,8.91016 -1.62761,2.44141 -3.78516,4.47591 -6.4707,6.10352 -2.60417,1.6276 -5.53386,2.8483 -8.78906,3.66211 -1.94035,0.44777 -3.87997,0.74199 -5.82032,0.91601 l 0,-43.30273 z"
         style="font-style:normal;font-variant:normal;font-weight:normal;font-stretch:normal;font-size:250px;font-family:Lora;-inkscape-font-specification:Lora;fill:#008000" />
      <path
         id="path4155"
         style="font-style:normal;font-variant:normal;font-weight:normal;font-stretch:normal;font-size:250px;font-family:Lora;-inkscape-font-specification:Lora"
         d="m 578.05469,764.5814 q 0,-3.90625 0.12207,-7.56836 0.24414,-3.66211 0.85449,-8.66699 l -17.7002,0.97656 0,-10.49805 q 8.17872,0 13.54981,-0.48829 5.37109,-0.61035 8.78906,-1.58691 3.41797,-0.97655 5.24903,-2.07519 1.95312,-1.2207 3.41796,-2.56348 l 7.20215,0 0,100.95215 q 0,5.00488 -0.12207,8.91113 -0.12207,3.78418 -0.85449,8.05664 l 15.74707,-0.73242 0,10.2539 -51.02539,0 0,-7.44629 q 5.7373,0 8.66699,-2.19726 3.05176,-2.31934 4.39453,-6.34766 1.34278,-4.02832 1.46485,-9.64355 0.24414,-5.61524 0.24414,-12.3291 l 0,-57.00684 z m 23.80371,-72.02148 q 0,3.05175 -1.2207,5.7373 -1.09864,2.68555 -2.92969,4.76074 -1.83106,1.95313 -4.27246,3.05176 -2.44141,1.09863 -5.12696,1.09863 -2.68554,0 -5.12695,-1.09863 -2.44141,-1.09863 -4.39453,-3.05176 -1.83106,-2.07519 -2.92969,-4.76074 -0.97656,-2.68555 -0.97656,-5.7373 0,-3.17383 1.09863,-5.85938 1.09863,-2.80762 2.92969,-4.88281 1.95312,-2.0752 4.39453,-3.17383 2.44141,-1.2207 5.24902,-1.2207 2.80762,0 5.12696,1.2207 2.4414,1.09863 4.27246,3.17383 1.83105,2.07519 2.80762,4.88281 1.09863,2.68555 1.09863,5.85938 z" />
      <path
         id="path4157"
         style="font-style:normal;font-variant:normal;font-weight:normal;font-stretch:normal;font-size:250px;font-family:Lora;-inkscape-font-specification:Lora"
         d="m 594.6377,913.38511 q 0,-4.63867 3.05175,-8.30078 2.92969,-3.54004 7.69043,-3.54004 3.05176,0 5.12696,0.97656 2.07519,1.09864 3.41796,2.68555 1.22071,1.58691 1.83106,3.41797 0.48828,1.95312 0.48828,3.41797 0,0.61035 0,1.09863 0,0.61035 -0.12207,1.2207 3.54004,1.46484 6.34766,1.46484 1.58691,0 4.27246,-0.73242 2.68554,-0.61036 5.98144,-3.54004 4.15039,-3.90625 5.61524,-11.96289 1.58691,-7.93457 1.58691,-18.43262 l 0.48828,-116.57715 q 0,-3.90625 0,-7.56836 0.12207,-3.66211 0.73242,-8.66699 l -17.70019,0.97656 0,-10.49805 q 8.17871,0 13.5498,-0.48828 5.49317,-0.61035 8.91114,-1.46484 3.41797,-0.97656 5.37109,-2.19727 1.95313,-1.2207 3.41797,-2.56347 l 7.20215,0 0,128.2959 q 0,17.45605 -3.66211,30.02929 -3.54004,12.69532 -10.00977,20.87403 -6.34765,8.17871 -15.01465,12.08496 -8.66699,3.90625 -18.79882,3.90625 -5.12696,0 -8.91114,-1.22071 -3.78418,-1.09863 -6.10351,-3.05175 -2.44141,-1.95313 -3.54004,-4.51661 -1.2207,-2.4414 -1.2207,-5.12695 z m 68.60351,-220.82519 q 0,3.05175 -1.2207,5.7373 -1.09864,2.68555 -2.92969,4.76074 -1.83105,1.95313 -4.27246,3.05176 -2.44141,1.09863 -5.12695,1.09863 -2.68555,0 -5.12696,-1.09863 -2.4414,-1.09863 -4.39453,-3.05176 -1.83105,-2.07519 -2.92969,-4.76074 -0.97656,-2.68555 -0.97656,-5.7373 0,-3.17383 1.09863,-5.85938 1.09864,-2.80762 2.92969,-4.88281 1.95313,-2.0752 4.39453,-3.17383 2.44141,-1.2207 5.24903,-1.2207 2.80761,0 5.12695,1.2207 2.44141,1.09863 4.27246,3.17383 1.83106,2.07519 2.80762,4.88281 1.09863,2.68555 1.09863,5.85938 z" />
      <path
         id="path4159"
         style="font-style:normal;font-variant:normal;font-weight:normal;font-stretch:normal;font-size:250px;font-family:Lora;-inkscape-font-specification:Lora"
         d="m 707.06445,764.5814 q 0,-3.90625 0.12207,-7.93457 0.12207,-4.02832 0.8545,-8.30078 l -17.7002,0.97656 0,-10.49805 q 8.17871,0 13.30566,-0.48829 5.12696,-0.61035 8.17872,-1.58691 3.17382,-0.97655 4.88281,-2.07519 1.70898,-1.2207 3.17383,-2.56348 l 7.20214,0 q 0.24414,2.80761 0.48829,6.46973 0.36621,3.54003 0.61035,8.667 4.02832,-3.54004 8.78906,-6.59181 4.88281,-3.05175 10.13184,-5.24901 5.24902,-2.31934 10.74218,-3.54004 5.61524,-1.34278 10.98633,-1.34278 21.72852,0 31.73828,13.67188 10.00977,13.5498 10.00977,42.23633 l 0,46.63086 q 0,5.00487 -0.12207,8.91112 -0.12207,3.78418 -0.85449,8.05664 l 15.74707,-0.73242 0,10.2539 -51.02539,0 0,-7.44628 q 5.7373,0 8.66699,-2.19727 3.05176,-2.31934 4.39453,-6.34766 1.34277,-4.02832 1.46484,-9.64355 0.24414,-5.61524 0.24414,-12.3291 l 0,-34.91211 q -0.24414,-21.60645 -7.08008,-32.47071 -6.83593,-10.98632 -21.72851,-10.98632 -4.5166,0 -9.0332,1.34277 -4.51661,1.34277 -8.667,3.54004 -4.15039,2.07519 -7.8125,5.00488 -3.66211,2.92969 -6.34765,6.34766 0.12207,2.19726 0.12207,4.76074 0,2.44141 0,5.00488 l -0.24414,63.84278 q 0,5.00488 -0.12207,8.91113 -0.12207,3.78418 -0.8545,8.05664 l 15.74708,-0.73242 0,10.2539 -51.0254,0 0,-7.44629 q 5.73731,0 8.667,-2.19726 3.05175,-2.31934 4.27246,-6.34766 1.34277,-4.02832 1.46484,-9.64355 0.24414,-5.61524 0.36621,-12.3291 l 0.24414,-57.00684 z" />
      <path
         style="font-style:normal;font-variant:normal;font-weight:normal;font-stretch:normal;font-size:250px;font-family:Lora;-inkscape-font-specification:Lora;fill:#008000"
         d="m 492.13631,720.0223 0,10.72461 c -5.85289,0.45989 -10.88692,1.64272 -15.09375,3.56054 -5.45248,2.44141 -9.80729,5.49414 -13.0625,9.15625 -3.25521,3.66211 -5.53191,7.60807 -6.83399,11.83985 -1.30208,4.15038 -1.95507,7.97525 -1.95507,11.47461 0,5.61523 1.01822,10.45833 3.05273,14.52734 2.11589,4.06901 4.84115,7.56836 8.17773,10.49805 3.41797,2.92968 7.28451,5.49218 11.59766,7.68945 4.31315,2.11589 8.70769,4.06901 13.18359,5.85937 0.31984,0.12565 0.61497,0.2439 0.9336,0.36915 l 0,47.27929 c -2.02601,-0.421 -4.00779,-0.99879 -5.93945,-1.75 -4.31316,-1.79036 -8.17774,-4.23176 -11.59571,-7.32422 -3.33658,-3.17382 -6.0638,-6.91732 -8.17969,-11.23047 -2.0345,-4.39453 -3.21354,-9.19596 -3.53906,-14.40429 l -7.6914,0 1.46679,42.96875 10.4961,0 -0.85352,-8.66602 c 4.15039,2.84831 9.44011,5.37109 15.86914,7.56836 3.08586,1.09372 6.41221,1.91758 9.9668,2.48633 l 0,9.90625 11.67773,0 0,-8.98633 c 0.23367,0.002 0.46007,0.0117 0.69532,0.0117 5.28971,0 10.49804,-0.73243 15.625,-2.19727 5.20833,-1.46484 9.84505,-3.70377 13.91406,-6.71484 4.15039,-3.01107 7.48893,-6.83594 10.01172,-11.47461 2.52278,-4.63867 3.7832,-10.09115 3.7832,-16.35742 0,-5.37109 -1.05794,-10.00976 -3.17383,-13.91602 -2.03451,-3.90624 -4.76172,-7.32422 -8.17969,-10.2539 -3.41796,-2.92969 -7.32421,-5.45248 -11.71875,-7.56836 -4.39453,-2.19727 -8.86849,-4.23177 -13.42578,-6.10352 -2.53752,-1.0875 -5.04419,-2.14264 -7.53125,-3.17969 l 0,-45.58789 c 3.4326,0.4471 6.51674,1.39497 9.23828,2.86915 3.90626,2.11588 7.12175,4.8828 9.64454,8.30078 2.60416,3.33658 4.55728,7.12174 5.85937,11.35351 1.38347,4.23177 2.23893,8.50325 2.56445,12.81641 l 7.8125,0 0,-43.82227 -10.49804,0 0.60937,9.52149 c -2.60417,-2.03451 -5.25,-3.7435 -7.93555,-5.12696 -2.68554,-1.38346 -5.37109,-2.48307 -8.05664,-3.29687 -2.68554,-0.89518 -5.32942,-1.50455 -7.93359,-1.83008 -0.44025,-0.0568 -0.87187,-0.1035 -1.30469,-0.15039 l 0,-10.83984 -11.67773,0 z m 0,20.5664 0,40.05664 c -2.11651,-1.10607 -4.10443,-2.26688 -5.93945,-3.49023 -3.41797,-2.27865 -6.1849,-4.88281 -8.30079,-7.8125 -2.0345,-2.92969 -3.05078,-6.42904 -3.05078,-10.49805 0,-2.52278 0.52995,-4.92448 1.58789,-7.20312 1.05794,-2.27865 2.60417,-4.27149 4.63868,-5.98047 2.11588,-1.79036 4.67838,-3.17383 7.68945,-4.15039 1.06776,-0.37516 2.19466,-0.67975 3.375,-0.92188 z m 11.67773,69.74024 c 0.22595,0.0895 0.47004,0.18417 0.69532,0.27343 4.39453,1.70899 8.25911,3.66212 11.5957,5.85938 3.41796,2.11589 6.14518,4.59701 8.17969,7.44531 2.11588,2.76693 3.17382,6.14518 3.17382,10.13281 0,3.41797 -0.85546,6.38737 -2.56445,8.91016 -1.62761,2.44141 -3.78516,4.47591 -6.4707,6.10352 -2.60417,1.6276 -5.53386,2.8483 -8.78906,3.66211 -1.94035,0.44777 -3.87997,0.74199 -5.82032,0.91601 l 0,-43.30273 z"
         id="path4176" />
    </g>
  </g>
</svg>

